PathFileType	4	(X/Y/Z)	C:/Users/opensim2020/Desktop/walking_exp_matlab/subject06_walking23_straight_01.trc	
DataRate	CameraRate	NumFrames	NumMarkers	Units	OrigDataRate	OrigDataStartFrame	OrigNumFrames	
100.00	100.00	6	45	mm	100.00	764	106	
Frame#	Time	LFHD			RFHD			LBHD			RBHD			C7			T10			CLAV			STRN			RBAK			LSHO			LUPA			LELB			LFRM			LWRA			LWRB			LFIN			RSHO			RUPA			RELB			RFRM			RWRA			RWRB			RFIN			LASI			RASI			LPSI			RPSI			LTHI			LKNE			LTIB			LANK			LHEE			LTOE			RTHI			RKNE			RTIB			RANK			RHEE			RTOE			*39			*40			*41			*42			*43			*44			
		X1	Y1	Z1	X2	Y2	Z2	X3	Y3	Z3	X4	Y4	Z4	X5	Y5	Z5	X6	Y6	Z6	X7	Y7	Z7	X8	Y8	Z8	X9	Y9	Z9	X10	Y10	Z10	X11	Y11	Z11	X12	Y12	Z12	X13	Y13	Z13	X14	Y14	Z14	X15	Y15	Z15	X16	Y16	Z16	X17	Y17	Z17	X18	Y18	Z18	X19	Y19	Z19	X20	Y20	Z20	X21	Y21	Z21	X22	Y22	Z22	X23	Y23	Z23	X24	Y24	Z24	X25	Y25	Z25	X26	Y26	Z26	X27	Y27	Z27	X28	Y28	Z28	X29	Y29	Z29	X30	Y30	Z30	X31	Y31	Z31	X32	Y32	Z32	X33	Y33	Z33	X34	Y34	Z34	X35	Y35	Z35	X36	Y36	Z36	X37	Y37	Z37	X38	Y38	Z38	X39	Y39	Z39	X40	Y40	Z40	X41	Y41	Z41	X42	Y42	Z42	X43	Y43	Z43	X44	Y44	Z44	X45	Y45	Z45	

27	0.260	1346.61755	-526.52319	1629.88123	1478.20618	-522.16986	1621.59155	1352.03491	-660.65991	1578.17566	1481.37500	-654.76971	1574.78491	1405.38721	-662.68164	1423.33484	1411.58582	-718.70361	1096.93335	1410.32275	-553.95819	1341.74768	1397.59106	-524.99799	1163.49768	1476.22791	-746.80170	1253.95825	1247.10046	-605.94806	1380.28760	1165.56238	-591.84875	1184.47253	1145.19348	-576.97955	1073.89526	1127.75964	-474.48111	967.48865	1175.41650	-357.98502	924.25848	1140.73364	-397.70850	877.35016	1142.81628	-311.52335	848.50928	1569.84583	-606.81848	1372.60205	1652.68018	-700.24231	1195.70898	1670.24121	-730.96112	1078.50537	1695.61316	-768.91595	965.81934	1684.52673	-775.01178	811.90100	1713.31958	-828.46143	841.15173	1723.70679	-832.39886	756.99426	1293.67188	-567.66467	921.87762	1511.97778	-542.81781	934.30695	1340.57849	-720.04578	962.99664	1507.25012	-696.01862	968.55450	1245.71484	-707.46094	623.90375	1265.88879	-752.26788	463.98740	1278.48462	-941.44678	286.08121	1319.57422	-1055.77478	158.23709	1364.25659	-1093.18042	174.89374	1334.14709	-970.92603	39.54238	1579.76746	-515.73608	623.98419	1546.08142	-462.09726	515.98950	1541.39783	-431.60178	253.59337	1492.13684	-403.43985	71.86803	1443.42163	-435.35620	46.73009	1500.29871	-251.74530	52.76602	1408.31982	-624.09711	1671.09436															 
28	0.270	1348.10974	-512.39069	1632.04712	1479.68701	-507.73672	1624.02026	1353.96558	-646.63739	1580.66089	1483.21777	-640.34961	1577.45264	1407.21777	-647.75507	1425.62341	1411.84729	-703.62793	1099.03442	1411.94287	-539.60358	1344.22559	1399.40271	-509.72867	1166.24084	1478.64319	-731.69373	1256.16650	1248.85840	-591.59711	1382.50073	1167.58997	-579.15900	1186.38708	1147.41394	-564.66559	1075.70850	1129.59900	-463.74921	968.27136	1176.60339	-346.95453	924.21979	1142.34924	-387.29636	877.23132	1143.63110	-301.41776	847.99841	1571.61414	-591.76282	1374.73218	1654.91760	-682.97876	1196.57935	1672.36304	-712.32550	1079.06433	1697.83740	-748.85211	965.94269	1686.11719	-753.40991	811.72058	1715.77026	-806.80414	840.69769	1725.91089	-809.92139	756.40643	1295.68481	-550.81067	923.86096	1513.40735	-527.11530	937.78174	1339.93958	-703.50800	964.36005	1506.39490	-680.83423	971.50720	1246.93958	-687.42505	623.43817	1266.43713	-728.95679	462.88678	1278.93579	-923.92804	292.46927	1319.28943	-1042.50085	168.52748	1364.41492	-1078.17993	187.46201	1334.17517	-967.68506	42.28476	1581.43079	-501.30630	627.51874	1547.80835	-447.63782	518.41559	1543.92175	-423.83878	254.74509	1492.96033	-401.96640	72.33246	1444.73853	-434.35876	47.76456	1500.85669	-250.24837	48.15348	1409.95081	-609.64850	1673.56519															 
29	0.280	1349.61218	-498.04544	1634.03015	1481.15417	-493.17999	1626.13062	1355.77771	-632.45300	1583.15918	1485.06812	-625.95380	1580.12769	1409.25208	-633.90607	1427.97437	1412.42395	-688.82898	1101.34448	1413.46692	-525.40826	1346.62756	1401.04480	-494.61978	1168.94470	1480.97522	-716.60199	1258.60498	1250.72461	-577.31171	1384.97681	1169.77551	-566.73755	1188.59473	1149.94580	-552.51617	1078.02197	1131.49402	-452.84573	968.86926	1177.65503	-336.79779	923.44073	1144.00793	-377.95581	876.87720	1144.30200	-292.29718	846.81183	1573.22131	-576.81317	1377.11328	1657.05981	-665.57135	1197.76306	1674.35193	-693.44781	1079.94360	1699.95850	-728.24915	966.35596	1687.91699	-730.91699	812.24896	1718.35120	-784.28619	840.36157	1728.05627	-786.36005	756.03076	1297.76404	-534.08447	925.97699	1514.95203	-511.78592	941.52991	1339.41589	-687.02008	965.74817	1505.63928	-666.14508	974.60809	1248.00000	-666.38354	622.73517	1266.75659	-704.66492	461.67288	1279.37048	-904.04926	298.15152	1319.39417	-1027.40796	178.87578	1364.40564	-1061.52563	200.31552	1334.57520	-962.50024	46.34019	1583.13416	-487.23245	630.87683	1549.60486	-434.92767	520.17078	1545.06775	-418.22314	255.18971	1493.13245	-399.74619	72.31118	1444.93945	-433.14258	48.57008	1501.51648	-248.40590	45.69558	1411.57056	-595.06458	1676.01208															 
30	0.290	1351.04834	-483.69583	1635.97290	1482.63770	-478.57864	1628.11536	1357.52734	-618.33093	1585.58264	1486.80444	-611.56073	1582.59302	1410.92432	-619.70569	1429.67041	1413.12830	-673.94873	1103.55542	1414.92859	-511.12744	1349.03613	1402.49451	-479.57867	1171.64441	1483.12024	-701.61407	1260.96790	1252.65015	-563.16541	1387.49744	1171.79089	-553.82361	1191.01819	1152.62988	-540.42859	1080.48096	1133.41675	-442.95441	969.66797	1178.63660	-326.98477	922.37549	1145.83630	-369.43304	876.08594	1144.90649	-284.15750	844.92853	1574.62561	-561.95557	1379.60474	1659.21252	-648.04114	1199.11572	1676.35095	-674.34393	1080.95959	1702.08789	-707.20032	966.84558	1689.80139	-707.92010	812.92212	1720.76245	-761.07892	840.02368	1730.11230	-762.07477	755.62177	1300.05347	-517.45837	928.17450	1516.72083	-497.02466	945.30975	1339.13391	-670.83655	967.17932	1505.46924	-651.47913	977.34442	1249.16040	-644.55951	622.08728	1267.11047	-679.35638	460.40939	1280.02466	-882.48041	303.29672	1319.54114	-1010.15613	189.16759	1364.75671	-1042.31543	213.20116	1334.41235	-956.15503	51.34634	1584.82336	-473.54526	633.57092	1551.05554	-423.24988	521.37451	1545.17896	-412.30594	255.09448	1492.89832	-397.88495	72.45740	1445.16663	-432.57230	49.26299	1501.12268	-247.15680	44.06367	1413.21362	-580.38568	1678.37512															 
31	0.300	1352.48120	-469.89774	1637.93799	1484.11340	-464.10706	1630.13928	1359.10449	-604.06085	1588.04553	1488.45178	-597.17542	1584.95642	1412.69055	-606.16888	1431.48755	1413.95129	-658.99847	1105.76184	1416.26367	-496.95844	1351.40637	1403.76221	-464.88101	1174.17859	1485.00806	-686.90997	1263.22424	1254.45837	-549.41504	1389.93982	1173.99805	-540.51147	1193.41858	1155.28772	-528.68542	1082.84973	1135.28040	-433.26028	970.16095	1179.70044	-317.79996	920.72412	1147.65283	-361.47583	875.16791	1145.55103	-276.92300	842.29596	1575.94946	-547.13611	1382.16272	1661.32288	-630.54736	1200.54626	1678.30884	-655.35120	1081.99939	1704.21350	-685.88086	967.34973	1691.32568	-684.00012	813.18835	1723.11633	-737.53778	839.61462	1732.23938	-737.01257	754.84998	1301.85132	-501.48862	930.25671	1518.86475	-483.05710	948.54675	1339.23450	-654.70728	968.77124	1505.70850	-637.20691	979.84662	1250.60364	-622.37708	621.59241	1268.03345	-653.45001	459.34616	1280.58655	-859.28375	307.91748	1319.34424	-990.44788	199.04883	1364.80225	-1020.64404	225.39526	1334.14978	-947.50165	56.45012	1585.52722	-460.97302	635.18420	1551.76025	-412.26285	522.05237	1544.80286	-406.30273	254.82335	1492.51550	-396.65027	72.54830	1445.25623	-432.43231	49.64621	1499.76453	-245.71169	42.99849	1414.85767	-565.90790	1680.70154															 
32	0.310	1353.95203	-455.09888	1640.41943	1485.51123	-449.60617	1632.32568	1360.61572	-589.76410	1590.69202	1489.93860	-582.80389	1587.41418	1414.06323	-592.03595	1433.34497	1414.89563	-644.16278	1108.03186	1417.55310	-482.78040	1353.90063	1405.00317	-450.39651	1176.77441	1486.75781	-672.33441	1265.40588	1256.01013	-535.76007	1392.37732	1176.16443	-527.34613	1195.75134	1157.79370	-517.23962	1085.07166	1137.06726	-423.94220	970.31000	1180.59412	-309.21286	918.39240	1149.14124	-354.16888	873.68274	1146.25354	-270.67261	839.18726	1577.23901	-532.48737	1384.73474	1663.43958	-613.07855	1201.98376	1680.37292	-636.14752	1083.03333	1706.25342	-664.43964	967.80725	1692.87146	-659.79132	813.78223	1725.29773	-713.37482	838.96936	1734.19812	-711.13483	754.19354	1303.78516	-485.66882	932.44653	1521.17834	-469.02866	951.67456	1339.68591	-639.12714	970.68500	1506.34265	-623.35309	982.35968	1252.38098	-599.96906	621.14484	1269.36438	-626.91846	458.51840	1281.09753	-834.42114	312.10315	1318.76465	-968.75928	207.29633	1364.34766	-996.17743	236.28734	1335.09680	-938.91345	60.18530	1585.94885	-449.28708	636.11426	1551.97180	-402.34427	522.45685	1544.32312	-400.92236	254.84256	1492.01624	-395.84335	72.72711	1444.93945	-432.20102	49.88204	1499.21570	-245.00960	42.28166	1416.43518	-551.39960	1683.20264															 
